<svg id="Layer_1" height="512" viewBox="0 0 75 75" width="512" xmlns="http://www.w3.org/2000/svg" data-name="Layer 1"><path d="m53.943 39.074h-32.886a2.665 2.665 0 0 1 -2.557-3.419l5.969-20.27a3.693 3.693 0 0 1 3.523-2.635h18.969a3.694 3.694 0 0 1 3.52 2.627l6.019 20.273a2.666 2.666 0 0 1 -2.557 3.424zm-25.951-24.824a2.184 2.184 0 0 0 -2.084 1.559l-5.97 20.27a1.166 1.166 0 0 0 1.119 1.495h32.886a1.165 1.165 0 0 0 1.118-1.5l-6.017-20.274a2.186 2.186 0 0 0 -2.083-1.554z"/><path d="m46.436 62.25h-17.908a.75.75 0 0 1 -.75-.75 4.86 4.86 0 0 1 4.854-4.854h9.7a4.86 4.86 0 0 1 4.854 4.854.75.75 0 0 1 -.75.75zm-17.074-1.5h16.238a3.36 3.36 0 0 0 -3.27-2.6h-9.7a3.36 3.36 0 0 0 -3.268 2.6z"/><path d="m39.721 58.146h-4.477a.75.75 0 0 1 -.75-.75v-19.072a.75.75 0 0 1 1.5 0v18.322h2.977v-18.322a.75.75 0 0 1 1.5 0v19.076a.75.75 0 0 1 -.75.746z"/><rect height="7.274" rx=".75" width="1.5" x="49.409" y="37.574"/><path d="m50.16 48.7a2.675 2.675 0 1 1 2.675-2.675 2.678 2.678 0 0 1 -2.675 2.675zm0-3.85a1.175 1.175 0 1 0 1.175 1.175 1.176 1.176 0 0 0 -1.175-1.177z"/><path d="m50.578 19.081h-26.2a.75.75 0 0 1 0-1.5h26.2a.75.75 0 0 1 0 1.5z"/></svg>